<?xml version="1.0" encoding="UTF-8" standalone="no"?>
<!DOCTYPE svg PUBLIC "-//W3C//DTD SVG 1.1//EN" "http://www.w3.org/Graphics/SVG/1.1/DTD/svg11.dtd">
<svg width="100%" height="100%" viewBox="0 0 1000 1000" version="1.1" xmlns="http://www.w3.org/2000/svg" xmlns:xlink="http://www.w3.org/1999/xlink" xml:space="preserve" xmlns:serif="http://www.serif.com/" style="fill-rule:evenodd;clip-rule:evenodd;stroke-linejoin:round;stroke-miterlimit:2;">
    <rect id="bg-amber-300" x="-8.478" y="-11.793" width="1022.188" height="1028.485" style="fill:rgb(252,211,77);"/>
    <g id="_100-100" serif:id="100/100">
        <g transform="matrix(1.006809,0,0,1.006809,-22.346986,43.688188)">
            <path d="M517.82,220.18C608.797,61.262 790.752,61.262 881.731,140.721C972.712,220.18 972.712,379.098 881.731,538.015C818.046,657.204 654.287,776.392 517.82,855.851C381.353,776.392 217.594,657.204 153.909,538.015C62.931,379.098 62.931,220.18 153.909,140.721C244.887,61.262 426.842,61.262 517.82,220.18Z"/>
        </g>
        <g transform="matrix(0.818032,0,0,0.818032,75.405311,130.252965)">
            <path d="M517.82,220.18C608.797,61.262 790.752,61.262 881.731,140.721C972.712,220.18 972.712,379.098 881.731,538.015C818.046,657.204 654.287,776.392 517.82,855.851C381.353,776.392 217.594,657.204 153.909,538.015C62.931,379.098 62.931,220.18 153.909,140.721C244.887,61.262 426.842,61.262 517.82,220.18Z" style="fill:white;"/>
        </g>
        <g transform="matrix(0.629256,0,0,0.629256,173.157607,216.817741)">
            <path d="M517.82,220.18C608.797,61.262 790.752,61.262 881.731,140.721C972.712,220.18 972.712,379.098 881.731,538.015C818.046,657.204 654.287,776.392 517.82,855.851C381.353,776.392 217.594,657.204 153.909,538.015C62.931,379.098 62.931,220.18 153.909,140.721C244.887,61.262 426.842,61.262 517.82,220.18Z"/>
        </g>
        <g transform="matrix(0.440479,0,0,0.440479,270.909904,303.382518)">
            <path d="M517.82,220.18C608.797,61.262 790.752,61.262 881.731,140.721C972.712,220.18 972.712,379.098 881.731,538.015C818.046,657.204 654.287,776.392 517.82,855.851C381.353,776.392 217.594,657.204 153.909,538.015C62.931,379.098 62.931,220.18 153.909,140.721C244.887,61.262 426.842,61.262 517.82,220.18Z" style="fill:white;"/>
        </g>
        <g transform="matrix(0.251702,0,0,0.251702,368.6622,389.947295)">
            <path d="M517.82,220.18C608.797,61.262 790.752,61.262 881.731,140.721C972.712,220.18 972.712,379.098 881.731,538.015C818.046,657.204 654.287,776.392 517.82,855.851C381.353,776.392 217.594,657.204 153.909,538.015C62.931,379.098 62.931,220.18 153.909,140.721C244.887,61.262 426.842,61.262 517.82,220.18Z"/>
        </g>
    </g>
</svg>
