<?xml version="1.0" encoding="UTF-8" standalone="no"?>
<!DOCTYPE svg PUBLIC "-//W3C//DTD SVG 1.1//EN" "http://www.w3.org/Graphics/SVG/1.1/DTD/svg11.dtd">
<svg width="100%" height="100%" viewBox="0 0 251 190" version="1.1" xmlns="http://www.w3.org/2000/svg" xmlns:xlink="http://www.w3.org/1999/xlink" xml:space="preserve" xmlns:serif="http://www.serif.com/" style="fill-rule:evenodd;clip-rule:evenodd;stroke-linejoin:round;stroke-miterlimit:2;">
    <path d="M-3,195L-3.109,80.513C12.32,74.307 29.674,69.76 44,70C81.382,70.627 140.235,120.426 167.7,163.069C178.156,179.303 189,191 189,191L-3,195Z" style="fill:white;"/>
    <clipPath id="_clip1">
        <path d="M-3,195L-3.109,80.513C12.32,74.307 29.674,69.76 44,70C81.382,70.627 140.235,120.426 167.7,163.069C178.156,179.303 189,191 189,191L-3,195Z"/>
    </clipPath>
    <g clip-path="url(#_clip1)">
        <path d="M152.549,138.18L123.259,170.869L104.393,196.931L149.268,193.477L168.205,159.843L152.549,138.18Z"/>
        <path d="M-12,146L-3,133C-3,133 18.816,155.102 30,192L20,194C20,194 8.197,167.333 -12,146"/>
        <g transform="matrix(1,0,0,1,0,-1)">
            <path d="M86.673,81.483L44.968,212.137L61.144,204.945L151.411,89.011L86.673,81.483Z"/>
        </g>
        <path d="M101,201L122,173C122,173 139.352,193.294 141,205L101,201Z"/>
        <path d="M18.128,66.37L27.683,118.017L32.514,197.32L41.468,197.178L47.428,115.207L54.676,63.017L18.128,66.37Z"/>
    </g>
    <path d="M144.785,192.586C118.496,151.296 83.732,111.467 39.191,111.467C10.782,111.467 -4.865,123.518 -4.865,123.518L-5.379,132.671C-5.379,132.671 11.334,116.29 43.044,116.29C74.755,116.29 115.982,161.4 138.209,192.865C138.209,192.865 145.963,194.437 144.785,192.586Z"/>
    <path d="M-3.061,130.958C-3.061,130.958 5.9,115.314 44.075,115.314C84.337,115.314 124.364,172.935 139.511,191.074L134.822,191.095C119.805,171.65 79.169,119.292 43.888,119.292C12.023,119.292 -3.138,136.989 -3.138,136.989L-3.061,130.958Z" style="fill:white;"/>
    <g id="Oreille">
        <path d="M76,124C76.031,116.304 99.632,99.205 145,97C145,97 112.268,154 94,154C75.732,154 75.958,134.563 76,124Z" style="fill:white;"/>
        <path d="M108,140C108,140 104.426,110.554 136,97L160,99L162,117C162,117 147.974,142.39 127,154C127,154 111.957,156.926 103,152C94.043,147.074 108,140 108,140Z" style="fill:rgb(131,130,130);"/>
        <path d="M122,152C122,152 132.672,129.825 146,125C146,125 141.899,121.988 133,126C133,126 137.984,115.268 146,115C146,115 138.225,107.663 126,116C113.775,124.337 98,149 98,149C98,149 98.675,154 110,154C121.325,154 122,152 122,152Z" style="fill:rgb(154,154,154);"/>
        <path d="M98,127C98.031,119.304 108,120.304 108,128C108,136.5 112.268,154 94,154C75.732,154 97.958,137.563 98,127Z" style="fill:white;"/>
        <path d="M111,121C111,121 120,93 152,93C162.009,93 165,99.991 165,106C165,133.338 127,154 127,154C127,154 159.982,129.242 160,106C160.002,102.952 157.828,98.994 153,99C120.667,99.037 111,121 111,121Z"/>
    </g>
</svg>
